<?xml version="1.0" encoding="UTF-8"?>
<svg width="6in" height="3in" version="1.0" xmlns="http://www.w3.org/2000/svg">
  <defs>
    <linearGradient id="a" x1="147.86" x2="110.2" y1="700.05" y2="657.97" gradientTransform="matrix(1.7669 0 0 .56598 -90.362 -209.72)" gradientUnits="userSpaceOnUse">
      <stop stop-color="#ddd" offset="0"/>
      <stop stop-color="#ddd" stop-opacity="0" offset="1"/>
    </linearGradient>
  </defs>
  <g fill-rule="evenodd">
    <path d="m39.363 64.299 298.43 96.364c-18.973 35.092 73.303 144.11 155.6 87.045 20.711-21.983-7.0116-67.509-32.119-76.441-15.582-5.5433-70.34-13.927-91.93-29.035-21.59-15.109-17.985-15.815-41.456-22.482-48.276-13.712-269.44-66.643-288.53-55.451zm320.94 125.95c-14.703-18.872 26.462-24.083 83.966-5.0333 58.552 21.733 40.931 54.04 20.486 59.536-44.889 12.067-90.249-29.506-104.45-54.502z" fill="#737373"/>
    <path d="m446.85 6.1255c-66.445-2.6187-124.48 74.707-109.06 103.22l-298.44 96.344c19.092 11.192 240.26-41.726 288.53-55.438 23.471-6.6664 19.879-7.3599 41.469-22.469s76.356-23.519 91.938-29.063c25.107-8.9321 52.805-54.455 32.094-76.438-15.431-10.7-31.198-15.552-46.531-16.156zm1.0938 16.969c5.5641-0.030749 11.201 0.64791 16.812 2.1562 20.445 5.496 38.052 37.799-20.5 59.531-57.504 19.049-98.672 13.841-83.969-5.0312 12.427-21.872 48.708-56.441 87.656-56.656z" fill="#888"/>
    <path d="m272.49 130.42-233.13 75.281c0.00952 0.00551 0.02163 0.02577 0.03125 0.03125 7.3566 4.1938 43.68-0.82858 88.5-9.375l151.28-48.688-6.6875-17.25z" fill="url(#a)"/>
    <path transform="translate(68.5 69.119)" d="m258.25 65.875a12.125 12.125 0 1 1-24.25 0 12.125 12.125 0 1 1 24.25 0z" color="#000000" fill="#b6b6b6"/>
    <rect transform="matrix(.19608 -.98059 .98059 .19608 0 0)" x="-83.2" y="333.41" width="24.75" height="3.2188" rx="1.6094" ry="0" color="#000000" fill="#737373"/>
  </g>
</svg>
